<svg version="1.1" xmlns="http://www.w3.org/2000/svg" xmlns:xlink="http://www.w3.org/1999/xlink" width="24" height="24" viewBox="0,0,256,256"><g fill="#fcad14" fill-rule="nonzero" stroke="none" stroke-width="1" stroke-linecap="butt" stroke-linejoin="miter" stroke-miterlimit="10" stroke-dasharray="" stroke-dashoffset="0" font-family="none" font-weight="none" font-size="none" text-anchor="none" style="mix-blend-mode: normal"><g transform="scale(10.66667,10.66667)"><path d="M12,4.998c-1.836,0 -3.356,0.389 -4.617,0.971l-3.676,-3.676l-1.414,1.414l3.315,3.316c-2.613,1.952 -3.543,4.618 -3.557,4.66l-0.105,0.316l0.105,0.316c0.022,0.067 2.316,6.685 9.949,6.685c1.835,0 3.354,-0.389 4.615,-0.971l3.678,3.678l1.414,-1.414l-3.317,-3.317c2.614,-1.952 3.545,-4.618 3.559,-4.66l0.105,-0.316l-0.105,-0.316c-0.022,-0.068 -2.316,-6.686 -9.949,-6.686zM4.074,12c0.103,-0.236 0.274,-0.586 0.521,-0.989l5.867,5.867c-4.213,-0.648 -5.939,-3.843 -6.388,-4.878zM13.321,16.907l-7.48,-7.481c0.36404,-0.36418 0.76182,-0.69299 1.188,-0.982l8.055,8.054c-0.57212,0.19632 -1.16288,0.33338 -1.763,0.409zM16.969,15.555l-1.541,-1.541c0.354,-0.596 0.572,-1.28 0.572,-2.015c0,-0.474 -0.099,-0.924 -0.255,-1.349c-0.18518,0.22003 -0.45743,0.34793 -0.745,0.35c-0.55228,0 -1,-0.44772 -1,-1c0,-0.439 0.288,-0.802 0.682,-0.936c-0.72876,-0.67885 -1.68606,-1.05899 -2.682,-1.065c-0.735,0 -1.419,0.218 -2.015,0.572l-1.07,-1.07c0.99255,-0.34067 2.03564,-0.51074 3.085,-0.503c5.351,0 7.425,3.847 7.926,5c-0.64114,1.4342 -1.66404,2.66466 -2.957,3.557z"></path></g></g></svg>